TITLE ""
FILE "P1Q_t_0129-0138.mp3" MP3
  TRACK 01 AUDIO
    TITLE "P1Q_t_0129-0138_01"
    INDEX 01 00:00:00
  TRACK 02 AUDIO
    TITLE "P1Q_t_0129-0138_02"
    INDEX 01 00:00:08
  TRACK 03 AUDIO
    TITLE "P1Q_t_0129-0138_03"
    INDEX 01 00:01:47
  TRACK 04 AUDIO
    TITLE "P1Q_t_0129-0138_04"
    INDEX 01 00:01:70
  TRACK 05 AUDIO
    TITLE "P1Q_t_0129-0138_05"
    INDEX 01 00:05:10
  TRACK 06 AUDIO
    TITLE "P1Q_t_0129-0138_06"
    INDEX 01 00:05:29
  TRACK 07 AUDIO
    TITLE "P1Q_t_0129-0138_07"
    INDEX 01 00:10:30
  TRACK 08 AUDIO
    TITLE "P1Q_t_0129-0138_08"
    INDEX 01 00:11:02
  TRACK 09 AUDIO
    TITLE "P1Q_t_0129-0138_09"
    INDEX 01 00:12:04
  TRACK 10 AUDIO
    TITLE "P1Q_t_0129-0138_10"
    INDEX 01 00:12:23
  TRACK 11 AUDIO
    TITLE "P1Q_t_0129-0138_11"
    INDEX 01 00:14:38
  TRACK 12 AUDIO
    TITLE "P1Q_t_0129-0138_12"
    INDEX 01 00:14:59
  TRACK 13 AUDIO
    TITLE "P1Q_t_0129-0138_13"
    INDEX 01 00:19:41
  TRACK 14 AUDIO
    TITLE "P1Q_t_0129-0138_14"
    INDEX 01 00:20:13
  TRACK 15 AUDIO
    TITLE "P1Q_t_0129-0138_15"
    INDEX 01 00:21:22
  TRACK 16 AUDIO
    TITLE "P1Q_t_0129-0138_16"
    INDEX 01 00:21:44
  TRACK 17 AUDIO
    TITLE "P1Q_t_0129-0138_17"
    INDEX 01 00:23:72
  TRACK 18 AUDIO
    TITLE "P1Q_t_0129-0138_18"
    INDEX 01 00:24:17
  TRACK 19 AUDIO
    TITLE "P1Q_t_0129-0138_19"
    INDEX 01 00:28:07
  TRACK 20 AUDIO
    TITLE "P1Q_t_0129-0138_20"
    INDEX 01 00:28:52
  TRACK 21 AUDIO
    TITLE "P1Q_t_0129-0138_21"
    INDEX 01 00:29:55
  TRACK 22 AUDIO
    TITLE "P1Q_t_0129-0138_22"
    INDEX 01 00:30:02
  TRACK 23 AUDIO
    TITLE "P1Q_t_0129-0138_23"
    INDEX 01 00:31:40
  TRACK 24 AUDIO
    TITLE "P1Q_t_0129-0138_24"
    INDEX 01 00:31:60
  TRACK 25 AUDIO
    TITLE "P1Q_t_0129-0138_25"
    INDEX 01 00:35:28
  TRACK 26 AUDIO
    TITLE "P1Q_t_0129-0138_26"
    INDEX 01 00:36:04
  TRACK 27 AUDIO
    TITLE "P1Q_t_0129-0138_27"
    INDEX 01 00:37:29
  TRACK 28 AUDIO
    TITLE "P1Q_t_0129-0138_28"
    INDEX 01 00:37:53
  TRACK 29 AUDIO
    TITLE "P1Q_t_0129-0138_29"
    INDEX 01 00:39:14
  TRACK 30 AUDIO
    TITLE "P1Q_t_0129-0138_30"
    INDEX 01 00:39:34
  TRACK 31 AUDIO
    TITLE "P1Q_t_0129-0138_31"
    INDEX 01 00:45:66
  TRACK 32 AUDIO
    TITLE "P1Q_t_0129-0138_32"
    INDEX 01 00:46:36
  TRACK 33 AUDIO
    TITLE "P1Q_t_0129-0138_33"
    INDEX 01 00:47:55
  TRACK 34 AUDIO
    TITLE "P1Q_t_0129-0138_34"
    INDEX 01 00:48:01
  TRACK 35 AUDIO
    TITLE "P1Q_t_0129-0138_35"
    INDEX 01 00:49:34
  TRACK 36 AUDIO
    TITLE "P1Q_t_0129-0138_36"
    INDEX 01 00:49:54
  TRACK 37 AUDIO
    TITLE "P1Q_t_0129-0138_37"
    INDEX 01 00:55:41
  TRACK 38 AUDIO
    TITLE "P1Q_t_0129-0138_38"
    INDEX 01 00:56:13
  TRACK 39 AUDIO
    TITLE "P1Q_t_0129-0138_39"
    INDEX 01 00:57:24
  TRACK 40 AUDIO
    TITLE "P1Q_t_0129-0138_40"
    INDEX 01 00:57:46
  TRACK 41 AUDIO
    TITLE "P1Q_t_0129-0138_41"
    INDEX 01 01:00:32
  TRACK 42 AUDIO
    TITLE "P1Q_t_0129-0138_42"
    INDEX 01 01:00:52
  TRACK 43 AUDIO
    TITLE "P1Q_t_0129-0138_43"
    INDEX 01 01:05:33
  TRACK 44 AUDIO
    TITLE "P1Q_t_0129-0138_44"
    INDEX 01 01:06:03
  TRACK 45 AUDIO
    TITLE "P1Q_t_0129-0138_45"
    INDEX 01 01:07:15
  TRACK 46 AUDIO
    TITLE "P1Q_t_0129-0138_46"
    INDEX 01 01:07:36
  TRACK 47 AUDIO
    TITLE "P1Q_t_0129-0138_47"
    INDEX 01 01:11:14
  TRACK 48 AUDIO
    TITLE "P1Q_t_0129-0138_48"
    INDEX 01 01:11:34
  TRACK 49 AUDIO
    TITLE "P1Q_t_0129-0138_49"
    INDEX 01 01:15:59
  TRACK 50 AUDIO
    TITLE "P1Q_t_0129-0138_50"
    INDEX 01 01:16:29
  TRACK 51 AUDIO
    TITLE "P1Q_t_0129-0138_51"
    INDEX 01 01:17:40
  TRACK 52 AUDIO
    TITLE "P1Q_t_0129-0138_52"
    INDEX 01 01:17:64
  TRACK 53 AUDIO
    TITLE "P1Q_t_0129-0138_53"
    INDEX 01 01:20:07
  TRACK 54 AUDIO
    TITLE "P1Q_t_0129-0138_54"
    INDEX 01 01:20:29
  TRACK 55 AUDIO
    TITLE "P1Q_t_0129-0138_55"
    INDEX 01 01:24:03
  TRACK 56 AUDIO
    TITLE "P1Q_t_0129-0138_56"
    INDEX 01 01:24:48
  TRACK 57 AUDIO
    TITLE "P1Q_t_0129-0138_57"
    INDEX 01 01:25:63
  TRACK 58 AUDIO
    TITLE "P1Q_t_0129-0138_58"
    INDEX 01 01:26:10
  TRACK 59 AUDIO
    TITLE "P1Q_t_0129-0138_59"
    INDEX 01 01:30:12
  TRACK 60 AUDIO
    TITLE "P1Q_t_0129-0138_60"
    INDEX 01 01:30:29
  TRACK 61 AUDIO
    TITLE "P1Q_t_0129-0138_61"
    INDEX 01 01:35:50
